<svg width="1440" height="926" viewBox="0 0 1440 926" fill="none" xmlns="http://www.w3.org/2000/svg">
<g opacity="0.14" clip-path="url(#clip0_188_668)">
<rect width="1440" height="926" fill="white"/>
<path d="M-948.384 148.142C-921.698 127.249 -812.154 267.168 -785.454 246.265C-758.754 225.361 -868.313 85.4532 -841.613 64.5496C-814.914 43.6459 -705.383 183.576 -678.683 162.673C-651.984 141.769 -761.543 1.86102 -734.843 -19.0426C-708.143 -39.9463 -598.613 99.984 -571.913 79.0803C-545.213 58.1767 -654.772 -81.7311 -628.072 -102.635C-601.373 -123.538 -491.842 16.3918 -465.143 -4.51183C-438.443 -25.4155 -548.002 -165.323 -521.316 -186.216C-494.631 -207.108 -385.072 -67.2004 -358.329 -88.1376C-331.586 -109.075 -441.188 -248.949 -414.503 -269.842C-387.817 -290.734 -278.244 -150.837 -251.616 -171.685C-224.988 -192.533 -334.475 -332.496 -307.704 -353.456C-280.933 -374.416 -171.474 -234.429 -144.788 -255.322C-118.103 -276.214 -227.633 -416.145 -200.948 -437.037C-174.262 -457.929 -64.7176 -318.01 -38.0178 -338.914C-11.3181 -359.818 -120.877 -499.726 -94.1916 -520.618C-67.5061 -541.51 42.0529 -401.603 68.7527 -422.506C95.4524 -443.41 -14.1066 -583.318 12.5932 -604.221C39.2929 -625.125 148.823 -485.195 175.523 -506.098C202.223 -527.002 92.6639 -666.91 119.364 -687.814C146.063 -708.717 255.594 -568.787 282.294 -589.691C308.993 -610.594 199.434 -750.502 226.134 -771.406C252.834 -792.309 362.364 -652.379 389.064 -673.283C415.764 -694.186 306.219 -834.105 332.905 -854.998C359.59 -875.89 469.149 -735.983 495.835 -756.875C522.52 -777.767 412.99 -917.698 439.675 -938.59C466.36 -959.482 575.919 -819.575 602.619 -840.478C629.319 -861.382 519.76 -1001.29 546.46 -1022.19C573.16 -1043.1 682.704 -903.178 709.39 -924.07C736.075 -944.963 626.545 -1084.89 653.244 -1105.8C679.944 -1126.7 789.489 -986.781 816.189 -1007.69C842.889 -1028.59 733.344 -1168.51 760.029 -1189.4" stroke="#A0A3BD" stroke-width="1.44" stroke-miterlimit="10"/>
<path d="M-723.544 435.327C-696.858 414.434 -587.314 554.353 -560.614 533.45C-533.914 512.546 -643.473 372.638 -616.773 351.735C-590.074 330.831 -480.543 470.761 -453.844 449.858C-427.144 428.954 -536.703 289.046 -510.003 268.142C-483.303 247.239 -373.773 387.169 -347.073 366.265C-320.373 345.362 -429.932 205.454 -403.233 184.55C-376.533 163.647 -267.002 303.577 -240.303 282.673C-213.603 261.77 -323.162 121.862 -296.476 100.969C-269.791 80.0768 -160.232 219.985 -133.489 199.047C-106.747 178.11 -216.349 38.2359 -189.663 17.3435C-162.978 -3.54895 -53.4043 136.348 -26.7761 115.5C-0.147816 94.6524 -109.635 -45.3114 -82.864 -66.2711C-56.0927 -87.2307 53.3661 52.7555 80.0516 31.8631C106.737 10.9706 -2.79327 -128.96 23.8922 -149.852C50.5777 -170.744 160.122 -30.8254 186.822 -51.7291C213.522 -72.6327 103.963 -212.541 130.648 -233.433C157.334 -254.325 266.893 -114.418 293.593 -135.321C320.292 -156.225 210.733 -296.133 237.433 -317.036C264.133 -337.94 373.663 -198.01 400.363 -218.913C427.063 -239.817 317.504 -379.725 344.204 -400.629C370.903 -421.532 480.434 -281.602 507.133 -302.506C533.833 -323.409 424.274 -463.317 450.974 -484.221C477.674 -505.124 587.204 -365.194 613.904 -386.098C640.604 -407.001 531.059 -546.92 557.744 -567.813C584.43 -588.705 693.989 -448.798 720.674 -469.69C747.36 -490.582 637.829 -630.513 664.515 -651.405C691.2 -672.297 800.759 -532.39 827.459 -553.293C854.159 -574.197 744.6 -714.105 771.3 -735.008C797.999 -755.912 907.544 -615.993 934.23 -636.885C960.915 -657.778 851.385 -797.708 878.084 -818.612C904.784 -839.515 1014.33 -699.596 1041.03 -720.5C1067.73 -741.404 958.184 -881.323 984.869 -902.215" stroke="#A0A3BD" stroke-width="1.008" stroke-miterlimit="10"/>
<path d="M-328.567 939.821C-301.882 918.928 -192.337 1058.85 -165.638 1037.94C-138.938 1017.04 -248.497 877.132 -221.797 856.228C-195.097 835.325 -85.5668 975.255 -58.867 954.351C-32.1673 933.448 -141.726 793.54 -115.026 772.636C-88.3267 751.733 21.2036 891.663 47.9034 870.759C74.6032 849.856 -34.9558 709.948 -8.25602 689.044C18.4437 668.14 127.974 808.071 154.674 787.167C181.374 766.263 71.8147 626.356 98.5001 605.463C125.186 584.571 234.745 724.478 261.487 703.541C288.23 682.604 178.628 542.73 205.314 521.837C231.999 500.945 341.572 640.842 368.2 619.994C394.829 599.146 285.341 459.182 312.113 438.223C338.884 417.263 448.343 557.249 475.028 536.357C501.714 515.464 392.183 375.534 418.869 354.642C445.554 333.749 555.099 473.668 581.799 452.765C608.498 431.861 498.939 291.953 525.625 271.061C552.31 250.168 661.869 390.076 688.569 369.173C715.269 348.269 605.71 208.361 632.41 187.458C659.109 166.554 768.64 306.484 795.34 285.58C822.039 264.677 712.48 124.769 739.18 103.865C765.88 82.9617 875.41 222.892 902.11 201.988C928.81 181.085 819.251 41.1767 845.951 20.2731C872.65 -0.630536 982.181 139.3 1008.88 118.396C1035.58 97.4924 926.036 -42.4266 952.721 -63.319C979.406 -84.2115 1088.97 55.6963 1115.65 34.8039C1142.34 13.9114 1032.81 -126.019 1059.49 -146.911C1086.18 -167.804 1195.74 -27.8958 1222.44 -48.7995C1249.14 -69.7031 1139.58 -209.611 1166.28 -230.515C1192.98 -251.418 1302.52 -111.499 1329.21 -132.392C1355.89 -153.284 1246.36 -293.214 1273.06 -314.118C1299.76 -335.021 1409.31 -195.103 1436.01 -216.006C1462.7 -236.91 1353.16 -376.829 1379.85 -397.721" stroke="#A0A3BD" stroke-width="1.008" stroke-miterlimit="10"/>
<path d="M236.545 1661.62C263.23 1640.73 372.775 1780.65 399.475 1759.75C426.175 1738.84 316.616 1598.94 343.315 1578.03C370.015 1557.13 479.545 1697.06 506.245 1676.16C532.945 1655.25 423.386 1515.34 450.086 1494.44C476.786 1473.54 586.316 1613.47 613.016 1592.56C639.715 1571.66 530.157 1431.75 556.856 1410.85C583.556 1389.94 693.086 1529.87 719.786 1508.97C746.486 1488.07 636.927 1348.16 663.612 1327.27C690.298 1306.37 799.857 1446.28 826.6 1425.35C853.342 1404.41 743.74 1264.53 770.426 1243.64C797.111 1222.75 906.685 1362.65 933.313 1341.8C959.941 1320.95 850.454 1180.99 877.225 1160.03C903.996 1139.07 1013.46 1279.05 1040.14 1258.16C1066.83 1237.27 957.296 1097.34 983.981 1076.45C1010.67 1055.55 1120.21 1195.47 1146.91 1174.57C1173.61 1153.66 1064.05 1013.76 1090.74 992.865C1117.42 971.972 1226.98 1111.88 1253.68 1090.98C1280.38 1070.07 1170.82 930.165 1197.52 909.261C1224.22 888.358 1333.75 1028.29 1360.45 1007.38C1387.15 986.481 1277.59 846.573 1304.29 825.669C1330.99 804.766 1440.52 944.696 1467.22 923.792C1493.92 902.888 1384.36 762.981 1411.06 742.077C1437.76 721.173 1547.29 861.104 1573.99 840.2C1600.69 819.296 1491.15 679.377 1517.83 658.485C1544.52 637.592 1654.08 777.5 1680.76 756.608C1707.45 735.715 1597.92 595.785 1624.6 574.893C1651.29 554 1760.85 693.908 1787.55 673.004C1814.25 652.101 1704.69 512.193 1731.39 491.289C1758.09 470.386 1867.63 610.305 1894.32 589.412C1921 568.52 1811.47 428.59 1838.17 407.686C1864.87 386.782 1974.42 526.701 2001.12 505.798C2027.82 484.894 1918.27 344.975 1944.96 324.083" stroke="#A0A3BD" stroke-width="1.008" stroke-miterlimit="10"/>
<path d="M-838.839 288.061C-812.153 267.168 -702.609 407.087 -675.909 386.184C-649.209 365.28 -758.768 225.372 -732.068 204.469C-705.369 183.565 -595.838 323.495 -569.139 302.592C-542.439 281.688 -651.998 141.78 -625.298 120.877C-598.598 99.9729 -489.068 239.903 -462.368 218.999C-435.668 198.096 -545.227 58.188 -518.528 37.2844C-491.828 16.3807 -382.297 156.311 -355.598 135.407C-328.898 114.504 -438.457 -25.4042 -411.771 -46.2966C-385.086 -67.1891 -275.527 72.7188 -248.784 51.7815C-222.042 30.8443 -331.643 -109.03 -304.958 -129.922C-278.273 -150.815 -168.699 -10.9182 -142.071 -31.7658C-115.443 -52.6135 -224.93 -192.577 -198.159 -213.537C-171.388 -234.497 -61.9288 -94.5104 -35.2433 -115.403C-8.55786 -136.295 -118.088 -276.225 -91.4027 -297.118C-64.7173 -318.01 44.8273 -178.091 71.5271 -198.995C98.2269 -219.899 -11.3321 -359.806 15.3534 -380.699C42.0388 -401.591 151.598 -261.684 178.298 -282.587C204.997 -303.491 95.4383 -443.399 122.138 -464.302C148.838 -485.206 258.368 -345.276 285.068 -366.179C311.768 -387.083 202.209 -526.991 228.909 -547.894C255.608 -568.798 365.139 -428.868 391.838 -449.771C418.538 -470.675 308.979 -610.583 335.679 -631.487C362.379 -652.39 471.909 -512.46 498.609 -533.364C525.309 -554.267 415.764 -694.186 442.45 -715.079C469.135 -735.971 578.694 -596.063 605.379 -616.956C632.065 -637.848 522.534 -777.778 549.22 -798.671C575.905 -819.563 685.464 -679.656 712.164 -700.559C738.864 -721.463 629.305 -861.371 656.005 -882.274C682.705 -903.178 792.249 -763.259 818.935 -784.151C845.62 -805.044 736.09 -944.974 762.789 -965.878C789.489 -986.781 899.034 -846.862 925.734 -867.766C952.434 -888.67 842.889 -1028.59 869.574 -1049.48" stroke="#A0A3BD" stroke-width="1.008" stroke-miterlimit="10"/>
<path d="M-443.863 792.555C-417.178 771.663 -307.633 911.582 -280.933 890.678C-254.234 869.775 -363.793 729.867 -337.093 708.963C-310.393 688.059 -200.863 827.99 -174.163 807.086C-147.463 786.182 -257.022 646.275 -230.322 625.371C-203.623 604.467 -94.0922 744.398 -67.3925 723.494C-40.6927 702.59 -150.252 562.682 -123.552 541.779C-96.8522 520.875 12.6782 660.805 39.378 639.902C66.0777 618.998 -43.4812 479.09 -16.7957 458.198C9.88971 437.305 119.449 577.213 146.191 556.276C172.934 535.339 63.3322 395.465 90.0176 374.572C116.703 353.68 226.276 493.576 252.905 472.729C279.533 451.881 170.045 311.917 196.817 290.958C223.588 269.998 333.047 409.984 359.732 389.092C386.418 368.199 276.887 228.269 303.573 207.377C330.258 186.484 439.803 326.403 466.503 305.5C493.202 284.596 383.643 144.688 410.329 123.796C437.014 102.903 546.573 242.811 573.273 221.907C599.973 201.004 490.414 61.0959 517.114 40.1923C543.813 19.2886 653.344 159.219 680.044 138.315C706.743 117.412 597.184 -22.4963 623.884 -43.4C650.584 -64.3036 760.114 75.6267 786.814 54.723C813.514 33.8194 703.955 -106.089 730.655 -126.992C757.354 -147.896 866.885 -7.96553 893.585 -28.8692C920.284 -49.7728 810.74 -189.692 837.425 -210.584C864.111 -231.477 973.67 -91.5689 1000.36 -112.461C1027.04 -133.354 917.51 -273.284 944.196 -294.176C970.881 -315.069 1080.44 -175.161 1107.14 -196.065C1133.84 -216.968 1024.28 -356.876 1050.98 -377.78C1077.68 -398.683 1187.22 -258.764 1213.91 -279.657C1240.6 -300.549 1131.07 -440.479 1157.77 -461.383C1184.46 -482.287 1294.01 -342.368 1320.71 -363.271C1347.41 -384.175 1237.86 -524.094 1264.55 -544.987" stroke="#A0A3BD" stroke-width="1.008" stroke-miterlimit="10"/>
<path d="M121.248 1514.36C147.934 1493.47 257.478 1633.39 284.178 1612.48C310.878 1591.58 201.319 1451.67 228.019 1430.77C254.718 1409.87 364.249 1549.8 390.948 1528.89C417.648 1507.99 308.089 1368.08 334.789 1347.18C361.489 1326.27 471.019 1466.2 497.719 1445.3C524.419 1424.4 414.86 1284.49 441.559 1263.58C468.259 1242.68 577.79 1382.61 604.489 1361.71C631.189 1340.8 521.63 1200.9 548.316 1180C575.001 1159.11 684.56 1299.02 711.303 1278.08C738.045 1257.14 628.443 1117.27 655.129 1096.38C681.814 1075.49 791.388 1215.38 818.016 1194.53C844.644 1173.69 735.157 1033.72 761.928 1012.76C788.699 991.804 898.158 1131.79 924.844 1110.9C951.529 1090 841.999 950.075 868.684 929.182C895.37 908.29 1004.91 1048.21 1031.61 1027.31C1058.31 1006.4 948.755 866.494 975.44 845.601C1002.13 824.709 1111.68 964.617 1138.38 943.713C1165.08 922.809 1055.53 782.902 1082.23 761.998C1108.92 741.094 1218.46 881.024 1245.15 860.121C1271.85 839.217 1162.3 699.309 1189 678.406C1215.7 657.502 1325.23 797.432 1351.93 776.529C1378.63 755.625 1269.07 615.717 1295.77 594.814C1322.47 573.91 1432 713.84 1458.7 692.936C1485.4 672.033 1375.85 532.114 1402.54 511.221C1429.22 490.329 1538.78 630.237 1565.47 609.344C1592.15 588.452 1482.62 448.522 1509.31 427.629C1535.99 406.737 1645.55 546.645 1672.25 525.741C1698.95 504.837 1589.39 364.929 1616.09 344.026C1642.79 323.122 1752.34 463.041 1779.02 442.149C1805.71 421.256 1696.18 281.326 1722.88 260.423C1749.58 239.519 1859.12 379.438 1885.82 358.534C1912.52 337.631 1802.98 197.712 1829.66 176.819" stroke="#A0A3BD" stroke-width="1.008" stroke-miterlimit="10"/>
<path d="M-613.999 575.246C-587.314 554.353 -477.769 694.272 -451.069 673.369C-424.369 652.465 -533.928 512.557 -507.229 491.654C-480.529 470.75 -370.998 610.68 -344.299 589.777C-317.599 568.873 -427.158 428.965 -400.458 408.061C-373.758 387.158 -264.228 527.088 -237.528 506.184C-210.828 485.281 -320.387 345.373 -293.688 324.469C-266.988 303.566 -157.458 443.496 -130.758 422.592C-104.058 401.689 -213.617 261.781 -186.931 240.888C-160.246 219.996 -50.6871 359.904 -23.9444 338.966C2.79827 318.029 -106.804 178.155 -80.1181 157.262C-53.4327 136.37 56.1406 276.267 82.7688 255.419C109.397 234.571 -0.0903481 94.6076 26.6809 73.6479C53.4522 52.6883 162.911 192.675 189.597 171.782C216.282 150.89 106.752 10.9594 133.437 -9.93305C160.123 -30.8255 269.667 109.094 296.367 88.1899C323.067 67.2863 213.508 -72.6215 240.193 -93.514C266.879 -114.406 376.438 25.5014 403.137 4.59773C429.837 -16.3059 320.278 -156.214 346.978 -177.117C373.678 -198.021 483.208 -58.0908 509.908 -78.9944C536.608 -99.898 427.049 -239.806 453.748 -260.71C480.448 -281.613 589.979 -141.683 616.678 -162.587C643.378 -183.49 533.819 -323.398 560.519 -344.302C587.219 -365.205 696.749 -225.275 723.449 -246.179C750.149 -267.082 640.604 -407.001 667.289 -427.894C693.975 -448.786 803.534 -308.879 830.219 -329.771C856.905 -350.663 747.374 -490.594 774.06 -511.486C800.745 -532.378 910.304 -392.471 937.004 -413.374C963.704 -434.278 854.145 -574.186 880.845 -595.089C907.544 -615.993 1017.09 -476.074 1043.77 -496.966C1070.46 -517.859 960.929 -657.789 987.629 -678.693C1014.33 -699.596 1123.87 -559.677 1150.57 -580.581C1177.27 -601.485 1067.73 -741.404 1094.41 -762.296" stroke="#A0A3BD" stroke-width="1.008" stroke-miterlimit="10"/>
<path d="M-48.8867 1297.05C-22.2013 1276.16 87.3434 1416.08 114.043 1395.17C140.743 1374.27 31.184 1234.36 57.8837 1213.46C84.5835 1192.55 194.114 1332.48 220.814 1311.58C247.513 1290.68 137.954 1150.77 164.654 1129.86C191.354 1108.96 300.884 1248.89 327.584 1227.99C354.284 1207.08 244.725 1067.18 271.425 1046.27C298.124 1025.37 407.655 1165.3 434.355 1144.4C461.054 1123.49 351.495 983.584 378.181 962.692C404.866 941.799 514.425 1081.71 541.168 1060.77C567.911 1039.83 458.309 899.958 484.994 879.066C511.68 858.173 621.253 998.07 647.881 977.222C674.509 956.375 565.022 816.411 591.793 795.451C618.564 774.492 728.023 914.478 754.709 893.585C781.394 872.693 671.864 732.763 698.549 711.87C725.235 690.978 834.779 830.897 861.479 809.993C888.179 789.09 778.62 649.182 805.306 628.289C831.991 607.397 941.55 747.305 968.25 726.401C994.95 705.497 885.39 565.59 912.09 544.686C938.79 523.782 1048.32 663.713 1075.02 642.809C1101.72 621.905 992.161 481.997 1018.86 461.094C1045.56 440.19 1155.09 580.12 1181.79 559.217C1208.49 538.313 1098.93 398.405 1125.63 377.502C1152.33 356.598 1261.86 496.528 1288.56 475.625C1315.26 454.721 1205.72 314.802 1232.4 293.909C1259.09 273.017 1368.65 412.925 1395.33 392.032C1422.02 371.14 1312.49 231.21 1339.17 210.317C1365.86 189.425 1475.42 329.333 1502.12 308.429C1528.82 287.525 1419.26 147.618 1445.96 126.714C1472.66 105.81 1582.2 245.729 1608.89 224.837C1635.57 203.944 1526.04 64.0143 1552.74 43.1107C1579.44 22.207 1688.99 162.126 1715.69 141.222C1742.39 120.319 1632.84 -19.6003 1659.53 -40.4927" stroke="#A0A3BD" stroke-width="1.008" stroke-miterlimit="10"/>
<path d="M-219.022 1079.74C-192.337 1058.85 -82.7924 1198.77 -56.0926 1177.86C-29.3928 1156.96 -138.952 1017.05 -112.252 996.147C-85.5522 975.244 23.9781 1115.17 50.6779 1094.27C77.3776 1073.37 -32.1813 933.459 -5.48154 912.555C21.2182 891.652 130.749 1031.58 157.448 1010.68C184.148 989.775 74.5891 849.867 101.289 828.963C127.989 808.059 237.519 947.99 264.219 927.086C290.919 906.182 181.36 766.275 208.045 745.382C234.731 724.49 344.289 864.398 371.032 843.46C397.775 822.523 288.173 682.649 314.858 661.756C341.544 640.864 451.117 780.761 477.745 759.913C504.374 739.065 394.886 599.101 421.657 578.142C448.429 557.182 557.888 697.168 584.573 676.276C611.259 655.384 501.728 515.453 528.414 494.561C555.099 473.668 664.644 613.587 691.344 592.684C718.043 571.78 608.484 431.872 635.17 410.98C661.855 390.087 771.414 529.995 798.114 509.092C824.814 488.188 715.255 348.28 741.955 327.377C768.654 306.473 878.185 446.403 904.884 425.499C931.584 404.596 822.025 264.688 848.725 243.784C875.425 222.881 984.955 362.811 1011.65 341.907C1038.35 321.004 928.796 181.096 955.496 160.192C982.195 139.289 1091.73 279.219 1118.43 258.315C1145.13 237.412 1035.58 97.4925 1062.27 76.6C1088.95 55.7076 1198.51 195.615 1225.2 174.723C1251.88 153.831 1142.35 13.9003 1169.04 -6.9921C1195.72 -27.8845 1305.28 112.023 1331.98 91.1196C1358.68 70.216 1249.12 -69.6919 1275.82 -90.5955C1302.52 -111.499 1412.07 28.4199 1438.75 7.52748C1465.44 -13.365 1355.91 -153.295 1382.61 -174.199C1409.31 -195.102 1518.85 -55.1835 1545.55 -76.0871C1572.25 -96.9908 1462.71 -236.91 1489.39 -257.802" stroke="#A0A3BD" stroke-width="1.008" stroke-miterlimit="10"/>
<path d="M346.089 1801.54C372.774 1780.65 482.319 1920.57 509.019 1899.67C535.719 1878.76 426.16 1738.86 452.859 1717.95C479.559 1697.05 589.089 1836.98 615.789 1816.07C642.489 1795.17 532.93 1655.26 559.63 1634.36C586.33 1613.46 695.86 1753.39 722.56 1732.48C749.259 1711.58 639.7 1571.67 666.4 1550.77C693.1 1529.86 802.63 1669.79 829.33 1648.89C856.03 1627.99 746.471 1488.08 773.156 1467.19C799.842 1446.29 909.401 1586.2 936.143 1565.26C962.886 1544.33 853.284 1404.45 879.97 1383.56C906.655 1362.67 1016.23 1502.57 1042.86 1481.72C1069.48 1460.87 959.998 1320.91 986.769 1299.95C1013.54 1278.99 1123 1418.97 1149.68 1398.08C1176.37 1377.19 1066.84 1237.26 1093.53 1216.37C1120.21 1195.47 1229.76 1335.39 1256.45 1314.49C1283.15 1293.58 1173.6 1153.68 1200.28 1132.78C1226.97 1111.89 1336.53 1251.8 1363.23 1230.9C1389.93 1209.99 1280.37 1070.08 1307.07 1049.18C1333.77 1028.28 1443.3 1168.21 1470 1147.3C1496.7 1126.4 1387.14 986.493 1413.84 965.589C1440.54 944.685 1550.07 1084.62 1576.77 1063.71C1603.47 1042.81 1493.91 902.9 1520.61 881.997C1547.31 861.093 1656.84 1001.02 1683.54 980.12C1710.24 959.216 1600.69 819.297 1627.38 798.405C1654.06 777.512 1763.62 917.42 1790.31 896.528C1816.99 875.635 1707.46 735.705 1734.15 714.812C1760.83 693.92 1870.39 833.828 1897.09 812.924C1923.79 792.021 1814.23 652.113 1840.93 631.209C1867.63 610.305 1977.18 750.224 2003.86 729.332C2030.55 708.44 1921.02 568.509 1947.72 547.606C1974.42 526.702 2083.96 666.621 2110.66 645.717C2137.36 624.814 2027.82 484.895 2054.5 464.002" stroke="#A0A3BD" stroke-width="1.008" stroke-miterlimit="10"/>
<path d="M-893.679 218.016C-866.993 197.124 -757.449 337.043 -730.749 316.139C-704.049 295.235 -813.608 155.328 -786.908 134.424C-760.208 113.52 -650.678 253.451 -623.978 232.547C-597.279 211.643 -706.838 71.7354 -680.138 50.8318C-653.438 29.9281 -543.908 169.858 -517.208 148.955C-490.508 128.051 -600.067 -11.8567 -573.367 -32.7604C-546.668 -53.664 -437.137 86.2662 -410.437 65.3626C-383.738 44.4589 -493.297 -95.4489 -466.611 -116.341C-439.926 -137.234 -330.367 2.67403 -303.624 -18.2632C-276.881 -39.2004 -386.483 -179.075 -359.798 -199.967C-333.112 -220.86 -223.539 -80.9629 -196.911 -101.811C-170.283 -122.658 -279.77 -262.622 -252.999 -283.582C-226.227 -304.541 -116.769 -164.555 -90.0832 -185.448C-63.3977 -206.34 -172.928 -346.27 -146.243 -367.163C-119.557 -388.055 -10.0125 -248.136 16.6873 -269.04C43.387 -289.943 -66.1719 -429.851 -39.4865 -450.744C-12.801 -471.636 96.758 -331.728 123.458 -352.632C150.158 -373.536 40.5985 -513.443 67.2983 -534.347C93.998 -555.251 203.528 -415.32 230.228 -436.224C256.928 -457.128 147.369 -597.035 174.069 -617.939C200.769 -638.843 310.299 -498.913 336.999 -519.816C363.698 -540.72 254.14 -680.628 280.839 -701.531C307.539 -722.435 417.069 -582.505 443.769 -603.408C470.469 -624.312 360.924 -764.231 387.61 -785.123C414.295 -806.016 523.854 -666.108 550.54 -687.001C577.225 -707.893 467.695 -847.823 494.38 -868.716C521.066 -889.608 630.625 -749.7 657.324 -770.604C684.024 -791.508 574.465 -931.415 601.165 -952.319C627.865 -973.223 737.409 -833.304 764.095 -854.196C790.78 -875.088 681.25 -1015.02 707.95 -1035.92C734.649 -1056.83 844.194 -916.907 870.894 -937.811C897.594 -958.714 788.049 -1098.63 814.734 -1119.53" stroke="#A0A3BD" stroke-width="1.44" stroke-miterlimit="10"/>
<path d="M-498.703 722.511C-472.018 701.618 -362.473 841.537 -335.773 820.634C-309.073 799.73 -418.632 659.822 -391.933 638.918C-365.233 618.015 -255.703 757.945 -229.003 737.041C-202.303 716.138 -311.862 576.23 -285.162 555.326C-258.462 534.423 -148.932 674.353 -122.232 653.449C-95.5326 632.546 -205.092 492.638 -178.392 471.734C-151.692 450.83 -42.1616 590.761 -15.4619 569.857C11.2379 548.953 -98.3211 409.046 -71.6356 388.153C-44.9501 367.261 64.6088 507.168 91.3515 486.231C118.094 465.294 8.49231 325.42 35.1778 304.527C61.8632 283.635 171.436 423.532 198.065 402.684C224.693 381.836 115.206 241.872 141.977 220.913C168.748 199.953 278.207 339.939 304.892 319.047C331.578 298.154 222.048 158.224 248.733 137.332C275.418 116.439 384.963 256.358 411.663 235.455C438.363 214.551 328.804 74.6433 355.489 53.7509C382.175 32.8584 491.734 172.766 518.433 151.863C545.133 130.959 435.574 -8.94885 462.274 -29.8525C488.974 -50.7561 598.504 89.1741 625.204 68.2704C651.904 47.3668 542.345 -92.5411 569.044 -113.445C595.744 -134.348 705.274 5.58194 731.974 -15.3217C758.674 -36.2253 649.115 -176.133 675.815 -197.037C702.515 -217.941 812.045 -78.0103 838.745 -98.9139C865.444 -119.818 755.9 -259.737 782.585 -280.629C809.271 -301.521 918.83 -161.614 945.515 -182.506C972.201 -203.399 862.67 -343.329 889.356 -364.221C916.041 -385.114 1025.6 -245.206 1052.3 -266.109C1079 -287.013 969.441 -426.921 996.141 -447.825C1022.84 -468.728 1132.38 -328.809 1159.07 -349.702C1185.76 -370.594 1076.23 -510.524 1102.93 -531.428C1129.62 -552.331 1239.17 -412.413 1265.87 -433.316C1292.57 -454.22 1183.02 -594.139 1209.71 -615.031" stroke="#A0A3BD" stroke-width="1.008" stroke-miterlimit="10"/>
<path d="M66.4092 1444.32C93.0946 1423.42 202.639 1563.34 229.339 1542.44C256.039 1521.53 146.48 1381.63 173.18 1360.72C199.879 1339.82 309.41 1479.75 336.11 1458.85C362.809 1437.94 253.25 1298.03 279.95 1277.13C306.65 1256.23 416.18 1396.16 442.88 1375.25C469.58 1354.35 360.021 1214.44 386.721 1193.54C413.42 1172.63 522.951 1312.57 549.65 1291.66C576.35 1270.76 466.791 1130.85 493.477 1109.96C520.162 1089.07 629.721 1228.97 656.464 1208.04C683.206 1187.1 573.605 1047.22 600.29 1026.33C626.976 1005.44 736.549 1145.34 763.177 1124.49C789.805 1103.64 680.318 963.677 707.089 942.717C733.86 921.758 843.319 1061.74 870.005 1040.85C896.69 1019.96 787.16 880.029 813.845 859.136C840.531 838.244 950.075 978.163 976.775 957.259C1003.47 936.356 893.916 796.448 920.601 775.555C947.287 754.663 1056.85 894.571 1083.55 873.667C1110.25 852.763 1000.69 712.856 1027.39 691.952C1054.09 671.048 1163.62 810.979 1190.32 790.075C1217.02 769.171 1107.46 629.263 1134.16 608.36C1160.86 587.456 1270.39 727.386 1297.09 706.483C1323.79 685.579 1214.23 545.671 1240.93 524.768C1267.63 503.864 1377.16 643.794 1403.86 622.891C1430.56 601.987 1321.01 462.068 1347.7 441.175C1374.38 420.283 1483.94 560.191 1510.63 539.298C1537.31 518.406 1427.78 378.476 1454.47 357.583C1481.15 336.691 1590.71 476.599 1617.41 455.695C1644.11 434.791 1534.55 294.884 1561.25 273.98C1587.95 253.076 1697.5 392.995 1724.18 372.103C1750.87 351.21 1641.34 211.28 1668.04 190.377C1694.74 169.473 1804.28 309.392 1830.98 288.488C1857.68 267.585 1748.14 127.666 1774.82 106.773" stroke="#A0A3BD" stroke-width="1.008" stroke-miterlimit="10"/>
<path d="M-668.837 505.201C-642.151 484.309 -532.607 624.228 -505.907 603.324C-479.207 582.42 -588.766 442.512 -562.066 421.609C-535.367 400.705 -425.836 540.635 -399.137 519.732C-372.437 498.828 -481.996 358.92 -455.296 338.017C-428.596 317.113 -319.066 457.043 -292.366 436.14C-265.666 415.236 -375.225 275.328 -348.526 254.424C-321.826 233.521 -212.295 373.451 -185.596 352.547C-158.896 331.644 -268.455 191.736 -241.769 170.844C-215.084 149.951 -105.525 289.859 -78.7823 268.922C-52.0396 247.984 -161.641 108.11 -134.956 87.2178C-108.271 66.3253 1.30269 206.222 27.931 185.374C54.5592 164.527 -54.9282 24.5628 -28.157 3.60321C-1.3857 -17.3564 108.073 122.63 134.759 101.737C161.444 80.8449 51.9138 -59.0853 78.5992 -79.9778C105.285 -100.87 214.829 39.0488 241.529 18.1452C268.229 -2.75844 158.67 -142.666 185.355 -163.559C212.041 -184.451 321.6 -44.5434 348.3 -65.447C374.999 -86.3506 265.44 -226.258 292.14 -247.162C318.84 -268.066 428.37 -128.135 455.07 -149.039C481.77 -169.943 372.211 -309.851 398.911 -330.754C425.61 -351.658 535.141 -211.728 561.84 -232.631C588.54 -253.535 478.981 -393.443 505.681 -414.346C532.381 -435.25 641.911 -295.32 668.611 -316.223C695.311 -337.127 585.766 -477.046 612.451 -497.939C639.137 -518.831 748.696 -378.923 775.381 -399.816C802.067 -420.708 692.536 -560.638 719.222 -581.531C745.907 -602.423 855.466 -462.515 882.166 -483.419C908.866 -504.323 799.307 -644.231 826.007 -665.134C852.706 -686.038 962.251 -546.119 988.937 -567.011C1015.62 -587.904 906.092 -727.834 932.791 -748.737C959.491 -769.641 1069.04 -629.722 1095.74 -650.626C1122.44 -671.529 1012.89 -811.448 1039.58 -832.341" stroke="#A0A3BD" stroke-width="1.008" stroke-miterlimit="10"/>
<path d="M-103.727 1227C-77.0411 1206.11 32.5035 1346.03 59.2033 1325.13C85.9031 1304.22 -23.6559 1164.32 3.0439 1143.41C29.7437 1122.51 139.274 1262.44 165.974 1241.54C192.674 1220.63 83.1146 1080.72 109.814 1059.82C136.514 1038.92 246.044 1178.85 272.744 1157.94C299.444 1137.04 189.885 997.131 216.585 976.228C243.285 955.324 352.815 1095.25 379.515 1074.35C406.214 1053.45 296.656 913.539 323.341 892.647C350.026 871.754 459.585 1011.66 486.328 990.725C513.071 969.788 403.469 829.913 430.154 809.021C456.84 788.129 566.413 928.025 593.041 907.178C619.67 886.33 510.182 746.366 536.953 725.406C563.725 704.447 673.184 844.433 699.869 823.541C726.554 802.648 617.024 662.718 643.71 641.825C670.395 620.933 779.94 760.852 806.639 739.948C833.339 719.045 723.78 579.137 750.466 558.245C777.151 537.352 886.71 677.26 913.41 656.356C940.11 635.453 830.551 495.545 857.25 474.641C883.95 453.738 993.481 593.668 1020.18 572.764C1046.88 551.861 937.321 411.953 964.021 391.049C990.721 370.145 1100.25 510.076 1126.95 489.172C1153.65 468.268 1044.09 328.36 1070.79 307.457C1097.49 286.553 1207.02 426.483 1233.72 405.58C1260.42 384.676 1150.88 244.757 1177.56 223.865C1204.25 202.972 1313.81 342.88 1340.49 321.988C1367.18 301.095 1257.65 161.165 1284.33 140.273C1311.02 119.38 1420.58 259.288 1447.28 238.384C1473.98 217.481 1364.42 77.5728 1391.12 56.6691C1417.82 35.7655 1527.36 175.685 1554.05 154.792C1580.73 133.9 1471.2 -6.0305 1497.9 -26.9341C1524.6 -47.8378 1634.15 92.0811 1660.85 71.1775C1687.55 50.2739 1578 -89.6451 1604.69 -110.538" stroke="#A0A3BD" stroke-width="1.008" stroke-miterlimit="10"/>
<path d="M-273.862 1009.69C-247.177 988.802 -137.632 1128.72 -110.932 1107.82C-84.2327 1086.91 -193.792 947.006 -167.092 926.102C-140.392 905.199 -30.8617 1045.13 -4.16197 1024.23C22.5378 1003.32 -87.0211 863.414 -60.3214 842.51C-33.6216 821.606 75.9087 961.537 102.608 940.633C129.308 919.729 19.7493 779.821 46.4491 758.918C73.1488 738.014 182.679 877.944 209.379 857.041C236.079 836.137 126.52 696.229 153.205 675.337C179.891 654.444 289.45 794.352 316.192 773.415C342.935 752.478 233.333 612.604 260.019 591.711C286.704 570.819 396.277 710.715 422.906 689.868C449.534 669.02 340.046 529.056 366.818 508.097C393.589 487.137 503.048 627.123 529.733 606.231C556.419 585.338 446.888 445.408 473.574 424.516C500.259 403.623 609.804 543.542 636.504 522.639C663.203 501.735 553.644 361.827 580.33 340.935C607.015 320.042 716.574 459.95 743.274 439.046C769.974 418.143 660.415 278.235 687.115 257.331C713.814 236.428 823.345 376.358 850.045 355.454C876.744 334.551 767.185 194.643 793.885 173.739C820.585 152.835 930.115 292.766 956.815 271.862C983.515 250.958 873.956 111.051 900.656 90.1469C927.355 69.2432 1036.89 209.174 1063.59 188.27C1090.29 167.366 980.741 27.4472 1007.43 6.55475C1034.11 -14.3377 1143.67 125.57 1170.36 104.678C1197.04 83.7852 1087.51 -56.1449 1114.2 -77.0374C1140.88 -97.9298 1250.44 41.978 1277.14 21.0743C1303.84 0.170683 1194.28 -139.737 1220.98 -160.641C1247.68 -181.544 1357.23 -41.6254 1383.91 -62.5178C1410.6 -83.4103 1301.07 -223.34 1327.77 -244.244C1354.47 -265.148 1464.01 -125.229 1490.71 -146.132C1517.41 -167.036 1407.87 -306.955 1434.55 -327.847" stroke="#A0A3BD" stroke-width="1.008" stroke-miterlimit="10"/>
<path d="M291.25 1731.5C317.935 1710.61 427.48 1850.53 454.18 1829.62C480.88 1808.72 371.321 1668.81 398.02 1647.91C424.72 1627 534.251 1766.93 560.95 1746.03C587.65 1725.13 478.091 1585.22 504.791 1564.31C531.491 1543.41 641.021 1683.34 667.721 1662.44C694.421 1641.53 584.862 1501.63 611.561 1480.72C638.261 1459.82 747.791 1599.75 774.491 1578.85C801.191 1557.94 691.632 1418.03 718.318 1397.14C745.003 1376.25 854.562 1516.16 881.305 1495.22C908.047 1474.28 798.445 1334.41 825.131 1313.52C851.816 1292.62 961.39 1432.52 988.018 1411.67C1014.65 1390.82 905.159 1250.86 931.93 1229.9C958.701 1208.94 1068.16 1348.93 1094.85 1328.04C1121.53 1307.14 1012 1167.21 1038.69 1146.32C1065.37 1125.43 1174.92 1265.35 1201.62 1244.44C1228.32 1223.54 1118.76 1083.63 1145.44 1062.74C1172.13 1041.85 1281.69 1181.75 1308.39 1160.85C1335.09 1139.95 1225.53 1000.04 1252.23 979.136C1278.93 958.233 1388.46 1098.16 1415.16 1077.26C1441.86 1056.36 1332.3 916.448 1359 895.544C1385.7 874.64 1495.23 1014.57 1521.93 993.667C1548.63 972.763 1439.07 832.855 1465.77 811.952C1492.47 791.048 1602 930.978 1628.7 910.075C1655.4 889.171 1545.85 749.252 1572.54 728.36C1599.22 707.467 1708.78 847.375 1735.47 826.483C1762.15 805.59 1652.62 665.66 1679.31 644.768C1705.99 623.875 1815.55 763.783 1842.25 742.879C1868.95 721.976 1759.39 582.068 1786.09 561.164C1812.79 540.26 1922.34 680.18 1949.02 659.287C1975.71 638.395 1866.18 498.464 1892.88 477.561C1919.58 456.657 2029.12 596.576 2055.82 575.673C2082.52 554.769 1972.98 414.85 1999.66 393.957" stroke="#A0A3BD" stroke-width="1.008" stroke-miterlimit="10"/>
<path d="M-784.133 357.935C-757.447 337.043 -647.903 476.962 -621.203 456.058C-594.503 435.154 -704.062 295.247 -677.362 274.343C-650.663 253.439 -541.132 393.37 -514.432 372.466C-487.733 351.562 -597.292 211.654 -570.592 190.751C-543.892 169.847 -434.362 309.777 -407.662 288.874C-380.962 267.97 -490.521 128.062 -463.821 107.159C-437.122 86.255 -327.591 226.185 -300.892 205.282C-274.192 184.378 -383.751 44.4701 -357.065 23.5776C-330.38 2.68521 -220.821 142.593 -194.078 121.656C-167.336 100.719 -276.937 -39.1557 -250.252 -60.0481C-223.566 -80.9406 -113.993 58.9561 -87.3649 38.1084C-60.7367 17.2608 -170.224 -122.703 -143.453 -143.663C-116.682 -164.622 -7.22273 -24.6361 19.4627 -45.5285C46.1482 -66.421 -63.3821 -206.351 -36.6967 -227.244C-10.0112 -248.136 99.5334 -108.217 126.233 -129.121C152.933 -150.024 43.374 -289.932 70.0594 -310.825C96.7449 -331.717 206.304 -191.809 233.004 -212.713C259.703 -233.617 150.144 -373.524 176.844 -394.428C203.544 -415.332 313.074 -275.401 339.774 -296.305C366.474 -317.209 256.915 -457.116 283.615 -478.02C310.314 -498.924 419.845 -358.994 446.544 -379.897C473.244 -400.801 363.685 -540.709 390.385 -561.612C417.085 -582.516 526.615 -442.586 553.315 -463.489C580.015 -484.393 470.47 -624.312 497.156 -645.204C523.841 -666.097 633.4 -526.189 660.086 -547.082C686.771 -567.974 577.241 -707.904 603.926 -728.797C630.611 -749.689 740.17 -609.781 766.87 -630.685C793.57 -651.589 684.011 -791.496 710.711 -812.4C737.411 -833.304 846.955 -693.385 873.641 -714.277C900.326 -735.169 790.796 -875.1 817.495 -896.003C844.195 -916.907 953.74 -776.988 980.44 -797.892C1007.14 -818.795 897.595 -958.714 924.28 -979.607" stroke="#A0A3BD" stroke-width="1.008" stroke-miterlimit="10"/>
<path d="M-389.156 862.43C-362.471 841.537 -252.926 981.456 -226.226 960.553C-199.527 939.649 -309.086 799.741 -282.386 778.837C-255.686 757.934 -146.156 897.864 -119.456 876.96C-92.7562 856.057 -202.315 716.149 -175.615 695.245C-148.916 674.342 -39.3852 814.272 -12.6855 793.368C14.0143 772.465 -95.5447 632.557 -68.8449 611.653C-42.1451 590.749 67.3852 730.68 94.085 709.776C120.785 688.872 11.2258 548.965 37.9113 528.072C64.5967 507.18 174.156 647.087 200.898 626.15C227.641 605.213 118.039 465.339 144.725 444.446C171.41 423.554 280.983 563.451 307.612 542.603C334.24 521.755 224.752 381.791 251.524 360.832C278.295 339.872 387.754 479.858 414.439 458.966C441.125 438.073 331.594 298.143 358.28 277.251C384.965 256.358 494.51 396.277 521.21 375.374C547.909 354.47 438.351 214.562 465.036 193.67C491.721 172.777 601.28 312.685 627.98 291.782C654.68 270.878 545.121 130.97 571.821 110.067C598.52 89.1629 708.051 229.093 734.751 208.189C761.45 187.286 651.891 47.378 678.591 26.4743C705.291 5.57068 814.821 145.501 841.521 124.597C868.221 103.694 758.662 -36.2142 785.362 -57.1179C812.061 -78.0215 921.592 61.9087 948.292 41.0051C974.991 20.1015 865.447 -119.818 892.132 -140.71C918.818 -161.602 1028.38 -21.6947 1055.06 -42.5871C1081.75 -63.4795 972.217 -203.41 998.903 -224.302C1025.59 -245.195 1135.15 -105.287 1161.85 -126.19C1188.55 -147.094 1078.99 -287.002 1105.69 -307.906C1132.39 -328.809 1241.93 -188.89 1268.62 -209.783C1295.3 -230.675 1185.77 -370.605 1212.47 -391.509C1239.17 -412.412 1348.72 -272.494 1375.42 -293.397C1402.12 -314.301 1292.57 -454.22 1319.26 -475.112" stroke="#A0A3BD" stroke-width="1.008" stroke-miterlimit="10"/>
<path d="M175.954 1584.23C202.64 1563.34 312.184 1703.26 338.884 1682.36C365.584 1661.45 256.025 1521.54 282.725 1500.64C309.424 1479.74 418.955 1619.67 445.654 1598.76C472.354 1577.86 362.795 1437.95 389.495 1417.05C416.195 1396.15 525.725 1536.08 552.425 1515.17C579.125 1494.27 469.566 1354.36 496.265 1333.46C522.965 1312.55 632.496 1452.48 659.195 1431.58C685.895 1410.68 576.336 1270.77 603.022 1249.88C629.707 1228.98 739.266 1368.89 766.009 1347.95C792.751 1327.02 683.15 1187.14 709.835 1166.25C736.52 1145.36 846.094 1285.25 872.722 1264.41C899.35 1243.56 789.863 1103.6 816.634 1082.64C843.405 1061.68 952.864 1201.66 979.55 1180.77C1006.24 1159.88 896.705 1019.95 923.39 999.055C950.076 978.162 1059.62 1118.08 1086.32 1097.18C1113.02 1076.27 1003.46 936.366 1030.15 915.474C1056.83 894.581 1166.39 1034.49 1193.09 1013.59C1219.79 992.682 1110.23 852.774 1136.93 831.87C1163.63 810.967 1273.16 950.897 1299.86 929.993C1326.56 909.09 1217 769.182 1243.7 748.278C1270.4 727.375 1379.93 867.305 1406.63 846.401C1433.33 825.497 1323.77 685.59 1350.47 664.686C1377.17 643.782 1486.7 783.713 1513.4 762.809C1540.1 741.905 1430.56 601.986 1457.24 581.094C1483.93 560.201 1593.49 700.109 1620.17 679.217C1646.86 658.324 1537.33 518.394 1564.01 497.502C1590.7 476.609 1700.26 616.517 1726.96 595.613C1753.66 574.71 1644.1 434.802 1670.8 413.898C1697.5 392.995 1807.04 532.914 1833.73 512.021C1860.41 491.129 1750.88 351.199 1777.58 330.295C1804.28 309.391 1913.83 449.31 1940.53 428.407C1967.23 407.503 1857.68 267.584 1884.37 246.692" stroke="#A0A3BD" stroke-width="1.008" stroke-miterlimit="10"/>
<path d="M-559.293 645.12C-532.608 624.227 -423.063 764.146 -396.363 743.242C-369.663 722.339 -479.222 582.431 -452.523 561.527C-425.823 540.624 -316.292 680.554 -289.593 659.65C-262.893 638.747 -372.452 498.839 -345.752 477.935C-319.052 457.032 -209.522 596.962 -182.822 576.058C-156.122 555.154 -265.681 415.247 -238.982 394.343C-212.282 373.439 -102.751 513.37 -76.0517 492.466C-49.3519 471.562 -158.911 331.654 -132.225 310.762C-105.54 289.87 4.01898 429.777 30.7617 408.84C57.5043 387.903 -52.0975 248.029 -25.4121 227.136C1.27339 206.244 110.847 346.14 137.475 325.293C164.103 304.445 54.6157 164.481 81.387 143.522C108.158 122.562 217.617 262.548 244.303 241.656C270.988 220.763 161.458 80.8332 188.143 59.9407C214.829 39.0483 324.373 178.967 351.073 158.064C377.773 137.16 268.214 -2.74775 294.899 -23.6402C321.585 -44.5326 431.144 95.3752 457.844 74.4715C484.543 53.5679 374.984 -86.3399 401.684 -107.244C428.384 -128.147 537.914 11.783 564.614 -9.12062C591.314 -30.0243 481.755 -169.932 508.455 -190.836C535.154 -211.739 644.685 -71.8091 671.384 -92.7128C698.084 -113.616 588.525 -253.524 615.225 -274.428C641.925 -295.332 751.455 -155.401 778.155 -176.305C804.855 -197.209 695.31 -337.128 721.995 -358.02C748.681 -378.913 858.24 -239.005 884.925 -259.897C911.611 -280.79 802.08 -420.72 828.766 -441.612C855.451 -462.505 965.01 -322.597 991.71 -343.501C1018.41 -364.404 908.851 -504.312 935.551 -525.216C962.25 -546.119 1071.8 -406.2 1098.48 -427.093C1125.17 -447.985 1015.64 -587.915 1042.34 -608.819C1069.04 -629.723 1178.58 -489.804 1205.28 -510.707C1231.98 -531.611 1122.43 -671.53 1149.12 -692.422" stroke="#A0A3BD" stroke-width="1.008" stroke-miterlimit="10"/>
<path d="M5.81836 1366.93C32.5038 1346.03 142.048 1485.95 168.748 1465.05C195.448 1444.14 85.8891 1304.24 112.589 1283.33C139.289 1262.43 248.819 1402.36 275.519 1381.46C302.218 1360.55 192.66 1220.64 219.359 1199.74C246.059 1178.84 355.589 1318.77 382.289 1297.86C408.989 1276.96 299.43 1137.05 326.13 1116.15C352.829 1095.24 462.36 1235.18 489.06 1214.27C515.759 1193.37 406.2 1053.46 432.886 1032.57C459.571 1011.68 569.13 1151.58 595.873 1130.65C622.616 1109.71 513.014 969.834 539.699 948.942C566.385 928.049 675.958 1067.95 702.586 1047.1C729.214 1026.25 619.727 886.287 646.498 865.327C673.27 844.368 782.728 984.354 809.414 963.461C836.099 942.569 726.569 802.639 753.254 781.746C779.94 760.854 889.485 900.773 916.184 879.869C942.884 858.966 833.325 719.058 860.011 698.165C886.696 677.273 996.255 817.181 1022.95 796.277C1049.65 775.373 940.096 635.466 966.795 614.562C993.495 593.658 1103.03 733.589 1129.73 712.685C1156.43 691.781 1046.87 551.873 1073.57 530.97C1100.27 510.066 1209.8 649.996 1236.5 629.093C1263.2 608.189 1153.64 468.281 1180.34 447.378C1207.04 426.474 1316.57 566.404 1343.27 545.501C1369.97 524.597 1260.42 384.678 1287.11 363.785C1313.79 342.893 1423.35 482.801 1450.04 461.908C1476.72 441.016 1367.19 301.086 1393.88 280.193C1420.56 259.301 1530.12 399.209 1556.82 378.305C1583.52 357.401 1473.96 217.494 1500.66 196.59C1527.36 175.686 1636.91 315.605 1663.59 294.713C1690.28 273.82 1580.75 133.89 1607.45 112.987C1634.15 92.083 1743.69 232.002 1770.39 211.098C1797.09 190.195 1687.55 50.2757 1714.23 29.3832" stroke="#A0A3BD" stroke-width="1.008" stroke-miterlimit="10"/>
<path d="M-164.317 1149.61C-137.632 1128.72 -28.0873 1268.64 -1.38751 1247.74C25.3123 1226.83 -84.2467 1086.92 -57.5469 1066.02C-30.8472 1045.12 78.6832 1185.05 105.383 1164.14C132.083 1143.24 22.5238 1003.33 49.2235 982.429C75.9233 961.525 185.454 1101.46 212.153 1080.55C238.853 1059.65 129.294 919.741 155.994 898.837C182.694 877.933 292.224 1017.86 318.924 996.96C345.624 976.056 236.065 836.148 262.75 815.256C289.436 794.363 398.995 934.271 425.737 913.334C452.48 892.397 342.878 752.523 369.564 731.63C396.249 710.738 505.822 850.634 532.45 829.787C559.079 808.939 449.591 668.975 476.363 648.016C503.134 627.056 612.593 767.042 639.278 746.15C665.964 725.257 556.433 585.327 583.119 564.435C609.804 543.542 719.349 683.461 746.049 662.558C772.748 641.654 663.189 501.746 689.875 480.854C716.56 459.961 826.119 599.869 852.819 578.965C879.519 558.062 769.96 418.154 796.66 397.25C823.359 376.347 932.89 516.277 959.59 495.373C986.289 474.47 876.73 334.562 903.43 313.658C930.13 292.755 1039.66 432.685 1066.36 411.781C1093.06 390.878 983.501 250.97 1010.2 230.066C1036.9 209.162 1146.43 349.093 1173.13 328.189C1199.83 307.285 1090.29 167.366 1116.97 146.474C1143.66 125.581 1253.22 265.489 1279.9 244.597C1306.59 223.704 1197.06 83.7741 1223.74 62.8817C1250.43 41.9892 1359.99 181.897 1386.69 160.993C1413.39 140.09 1303.83 0.181908 1330.53 -20.7217C1357.23 -41.6254 1466.77 98.2937 1493.46 77.4013C1520.14 56.5088 1410.61 -83.4214 1437.31 -104.325C1464.01 -125.229 1573.56 14.6903 1600.26 -6.21336C1626.95 -27.117 1517.41 -167.036 1544.1 -187.928" stroke="#A0A3BD" stroke-width="1.008" stroke-miterlimit="10"/>
<path d="M400.795 1871.42C427.48 1850.53 537.025 1990.45 563.725 1969.54C590.425 1948.64 480.866 1808.73 507.565 1787.83C534.265 1766.92 643.795 1906.85 670.495 1885.95C697.195 1865.05 587.636 1725.14 614.336 1704.24C641.036 1683.33 750.566 1823.26 777.266 1802.36C803.965 1781.45 694.407 1641.55 721.106 1620.64C747.806 1599.74 857.336 1739.67 884.036 1718.77C910.736 1697.86 801.177 1557.95 827.862 1537.06C854.548 1516.17 964.107 1656.08 990.85 1635.14C1017.59 1614.2 907.99 1474.33 934.676 1453.44C961.361 1432.54 1070.93 1572.44 1097.56 1551.59C1124.19 1530.75 1014.7 1390.78 1041.47 1369.82C1068.25 1348.86 1177.71 1488.85 1204.39 1467.96C1231.08 1447.06 1121.55 1307.13 1148.23 1286.24C1174.92 1265.35 1284.46 1405.27 1311.16 1384.36C1337.86 1363.46 1228.3 1223.55 1254.99 1202.66C1281.67 1181.77 1391.23 1321.68 1417.93 1300.77C1444.63 1279.87 1335.07 1139.96 1361.77 1119.06C1388.47 1098.15 1498 1238.08 1524.7 1217.18C1551.4 1196.28 1441.84 1056.37 1468.54 1035.46C1495.24 1014.56 1604.77 1154.49 1631.47 1133.59C1658.17 1112.68 1548.61 972.776 1575.31 951.872C1602.01 930.969 1711.54 1070.9 1738.24 1050C1764.94 1029.09 1655.4 889.173 1682.08 868.28C1708.77 847.388 1818.33 987.296 1845.01 966.403C1871.7 945.511 1762.17 805.581 1788.85 784.688C1815.54 763.796 1925.1 903.704 1951.8 882.8C1978.5 861.896 1868.94 721.988 1895.64 701.085C1922.34 680.181 2031.88 820.1 2058.57 799.208C2085.25 778.315 1975.72 638.385 2002.42 617.482C2029.12 596.578 2138.67 736.497 2165.37 715.593C2192.07 694.69 2082.52 554.771 2109.21 533.878" stroke="#A0A3BD" stroke-width="1.008" stroke-miterlimit="10"/>
</g>
<defs>
<clipPath id="clip0_188_668">
<rect width="1440" height="926" fill="white"/>
</clipPath>
</defs>
</svg>
